<svg xmlns="http://www.w3.org/2000/svg" width="18" height="17.999" viewBox="0 0 18 17.999">
  <path id="instagram" d="M12,3c-2.444,0-2.75.011-3.71.054A6.623,6.623,0,0,0,6.1,3.473,4.6,4.6,0,0,0,3.472,6.1a6.636,6.636,0,0,0-.419,2.184C3.01,9.249,3,9.555,3,12s.01,2.75.054,3.71a6.623,6.623,0,0,0,.419,2.184,4.6,4.6,0,0,0,2.633,2.633,6.636,6.636,0,0,0,2.184.419C9.25,20.989,9.556,21,12,21s2.75-.011,3.71-.054a6.623,6.623,0,0,0,2.184-.419,4.6,4.6,0,0,0,2.633-2.633,6.636,6.636,0,0,0,.419-2.184c.043-.96.054-1.267.054-3.71s-.011-2.75-.054-3.71A6.623,6.623,0,0,0,20.527,6.1a4.6,4.6,0,0,0-2.633-2.633,6.636,6.636,0,0,0-2.184-.419C14.75,3.011,14.444,3,12,3m0,1.622c2.4,0,2.687.009,3.636.052a5,5,0,0,1,1.672.31,2.979,2.979,0,0,1,1.708,1.708,4.994,4.994,0,0,1,.31,1.671c.043.95.052,1.233.052,3.637s-.009,2.687-.052,3.636a5.032,5.032,0,0,1-.31,1.672,2.979,2.979,0,0,1-1.708,1.708,4.994,4.994,0,0,1-1.671.31c-.949.043-1.233.052-3.637.052s-2.688-.009-3.636-.052a5.032,5.032,0,0,1-1.672-.31,2.979,2.979,0,0,1-1.708-1.708,4.963,4.963,0,0,1-.31-1.671c-.043-.95-.052-1.233-.052-3.637s.009-2.687.052-3.636a5,5,0,0,1,.31-1.672A2.979,2.979,0,0,1,6.692,4.983a4.963,4.963,0,0,1,1.671-.31C9.312,4.631,9.6,4.622,12,4.622M12,15a3,3,0,1,1,3-3,3,3,0,0,1-3,3m0-7.621A4.621,4.621,0,1,0,16.621,12,4.621,4.621,0,0,0,12,7.379M17.883,7.2a1.08,1.08,0,1,1-1.08-1.08,1.08,1.08,0,0,1,1.08,1.08" transform="translate(-3 -3)" fill="#fff" fill-rule="evenodd"/>
</svg>
