<svg id="arrow-right-short" xmlns="http://www.w3.org/2000/svg" width="15.693" height="13.733" viewBox="0 0 15.693 13.733">
  <path id="Path_22" data-name="Path 22" d="M18.269,10.412a.881.881,0,0,1,1.3,0L25.1,16.3a1.027,1.027,0,0,1,0,1.389l-5.523,5.884a.882.882,0,0,1-1.3,0,1.028,1.028,0,0,1,0-1.389l4.873-5.19L18.269,11.8a1.027,1.027,0,0,1,0-1.389Z" transform="translate(-9.673 -10.123)" fill="#221f20" fill-rule="evenodd"/>
<path id="Path_23" data-name="Path 23" d="M9,17.8a.954.954,0,0,1,.985-.921h12.8a.923.923,0,1,1,0,1.841H9.985A.954.954,0,0,1,9,17.8Z" transform="translate(-9 -10.929)" fill="#221f20" fill-rule="evenodd"/>
</svg>