<svg class="mob-logo" xmlns="http://www.w3.org/2000/svg" width="92.389" height="30.811" viewBox="0 0 92.389 30.811">
    <g id="logo-fluid" transform="translate(0 -5.7)">
        <g id="Group_141" data-name="Group 141" transform="translate(0 8.909)">
        <path id="Path_239" data-name="Path 239" d="M2.128,70.616a2.16,2.16,0,0,0,1.527-.6,1.967,1.967,0,0,0,.626-1.5V58.9h6.341a2.025,2.025,0,0,0,2.128-2.042,2.1,2.1,0,0,0-2.128-2.128H4.273V47.381h9.241a2.141,2.141,0,0,0,0-4.281H2.128a2.035,2.035,0,0,0-1.63.686A2.062,2.062,0,0,0,0,45.159V68.5a2.023,2.023,0,0,0,.626,1.484,2.023,2.023,0,0,0,1.5.635Z" transform="translate(0 -43.1)"/>
        <path id="Path_240" data-name="Path 240" d="M221.57,70.616H232.9a2.054,2.054,0,0,0,2.128-2.1,2.1,2.1,0,0,0-2.128-2.128l-8.915-.026V45.228a2.091,2.091,0,0,0-.626-1.527,2.209,2.209,0,0,0-3.029,0,2.091,2.091,0,0,0-.626,1.527V68.505a2.052,2.052,0,0,0,1.7,2.059l.172.051Z" transform="translate(-200.85 -43.1)"/>
        <path id="Path_241" data-name="Path 241" d="M720.728,70.707a2.1,2.1,0,0,0,2.154-2.1V45.3a2.141,2.141,0,0,0-4.281,0V68.6A2.081,2.081,0,0,0,720.728,70.707Z" transform="translate(-656.944 -43.191)"/>
        <path id="Path_242" data-name="Path 242" d="M840.455,70.707a14.124,14.124,0,0,0,7.07-1.845,13.672,13.672,0,0,0,5.028-18.876,13.817,13.817,0,0,0-5.028-4.942,14.124,14.124,0,0,0-7.07-1.845h-4.728a2.074,2.074,0,0,0-2.128,2.1V68.6a2.074,2.074,0,0,0,2.128,2.1l4.728.009Zm-2.583-4.3V47.516h2.711a9.738,9.738,0,0,1,6.8,2.771,9.437,9.437,0,0,1,2.8,6.71,9.175,9.175,0,0,1-2.814,6.727,9.906,9.906,0,0,1-6.881,2.686Z" transform="translate(-762.077 -43.191)"/>
        </g>
        <g id="Group_142" data-name="Group 142" transform="translate(35.231 5.7)">
        <path id="Path_243" data-name="Path 243" d="M432,22.139c-.249-.884-1-3.561-5.791-10.107L421.571,5.7a8.214,8.214,0,0,0-.335,9.2l.335.532c2.282,3.115,4.367,6.392,4.9,8.271a5.47,5.47,0,0,1-.506,4.788,5.381,5.381,0,0,1-8.786,0,5.527,5.527,0,0,1-.506-4.788c.455-1.63,2.085-4.3,3.99-7.01l-1.038-1.39a6.9,6.9,0,0,1-1.287-5.182l-1.407,1.922c-4.8,6.547-5.543,9.223-5.791,10.107A11,11,0,1,0,432,22.139" transform="translate(-410.616 -5.7)"/>
        <path id="Path_244" data-name="Path 244" d="M417.067,69.6h0a38.716,38.716,0,0,1,3.6-5.929l-1.038-1.39a6.9,6.9,0,0,1-1.287-5.182l-1.407,1.922c-4.8,6.547-5.543,9.223-5.791,10.107a11.091,11.091,0,0,0,1.278,9.567,10.743,10.743,0,0,0,2.625,2.694A22.753,22.753,0,0,1,417.067,69.6" transform="translate(-410.616 -52.69)" fill="#4C4C4C"/>
        <path id="Path_245" data-name="Path 245" d="M521.445,5.7a8.214,8.214,0,0,0-.335,9.2l.335.532c2.282,3.115,4.367,6.392,4.9,8.271a5.47,5.47,0,0,1-.506,4.788,4.676,4.676,0,0,1-.395.506c3.458-3.552,3.054-9.893,1.776-15.367-.352-.506-.729-1.038-1.141-1.6L521.445,5.7Z" transform="translate(-510.489 -5.7)" fill="#383838"/>
        </g>
    </g>
</svg>