<svg xmlns="http://www.w3.org/2000/svg" width="207.574" height="69.223" viewBox="0 0 207.574 69.223">
  <g id="logo-fluid" transform="translate(0 -5.7)">
    <g id="Group_139" data-name="Group 139" transform="translate(0 12.91)">
      <path id="Path_232" data-name="Path 232" d="M4.781,104.921a4.853,4.853,0,0,0,3.431-1.349A4.419,4.419,0,0,0,9.619,100.2V78.608H23.865a4.55,4.55,0,0,0,4.781-4.588,4.708,4.708,0,0,0-4.781-4.781H9.6V52.719H30.361a4.81,4.81,0,0,0,0-9.619H4.781a4.573,4.573,0,0,0-3.663,1.542A4.632,4.632,0,0,0,0,47.726V100.16a4.545,4.545,0,0,0,1.407,3.335,4.544,4.544,0,0,0,3.373,1.426Z" transform="translate(0 -43.1)" fill="#efefef"/>
      <path id="Path_233" data-name="Path 233" d="M223.9,104.921h25.446a4.615,4.615,0,0,0,4.781-4.723,4.708,4.708,0,0,0-4.781-4.781l-20.029-.058V47.881a4.7,4.7,0,0,0-1.407-3.431,4.964,4.964,0,0,0-6.8,0,4.7,4.7,0,0,0-1.407,3.431v52.3a4.61,4.61,0,0,0,3.817,4.626l.386.116Z" transform="translate(-177.349 -43.1)" fill="#efefef"/>
      <path id="Path_234" data-name="Path 234" d="M723.381,105a4.708,4.708,0,0,0,4.838-4.723V47.923a4.81,4.81,0,0,0-9.619,0V100.26A4.676,4.676,0,0,0,723.381,105Z" transform="translate(-580.076 -43.181)" fill="#efefef"/>
      <path id="Path_235" data-name="Path 235" d="M849,105a31.733,31.733,0,0,0,15.884-4.145,30.717,30.717,0,0,0,11.3-42.409,31.045,31.045,0,0,0-11.3-11.1A31.733,31.733,0,0,0,849,43.2H838.381a4.66,4.66,0,0,0-4.781,4.723V100.26a4.66,4.66,0,0,0,4.781,4.723L849,105Zm-5.8-9.658V52.9h6.092a21.88,21.88,0,0,1,15.267,6.226A21.2,21.2,0,0,1,870.843,74.2,20.613,20.613,0,0,1,864.52,89.31a22.256,22.256,0,0,1-15.46,6.034Z" transform="translate(-672.908 -43.181)" fill="#efefef"/>
    </g>
    <g id="Group_140" data-name="Group 140" transform="translate(79.154 5.7)">
      <path id="Path_236" data-name="Path 236" d="M458.651,42.635c-.559-1.986-2.255-8-13.012-22.708L435.23,5.7a18.454,18.454,0,0,0-.752,20.665l.752,1.2c5.128,7,9.812,14.361,11.007,18.583,1.06,3.759,1.118,7.441-1.137,10.757a12.089,12.089,0,0,1-19.74,0c-2.236-3.316-2.178-7-1.137-10.757,1.022-3.663,4.684-9.658,8.964-15.749l-2.333-3.123a15.493,15.493,0,0,1-2.892-11.643L424.8,19.946c-10.776,14.708-12.453,20.723-13.012,22.708-2.834,10.082,0,17.253,2.872,21.494a25.018,25.018,0,0,0,41.137,0c2.853-4.26,5.687-11.431,2.853-21.513" transform="translate(-410.616 -5.7)" fill="#efefef"/>
      <path id="Path_237" data-name="Path 237" d="M425.109,85.186h0a86.985,86.985,0,0,1,8.077-13.32l-2.332-3.123A15.513,15.513,0,0,1,427.962,57.1L424.8,61.418c-10.776,14.708-12.453,20.723-13.012,22.708-2.834,10.082,0,17.253,2.872,21.494a24.138,24.138,0,0,0,5.9,6.053,51.121,51.121,0,0,1,4.549-26.486" transform="translate(-410.616 -47.192)" fill="#c9c9c9"/>
      <path id="Path_238" data-name="Path 238" d="M523.417,5.7a18.454,18.454,0,0,0-.752,20.665l.752,1.2c5.128,7,9.812,14.361,11.007,18.583,1.06,3.759,1.118,7.441-1.137,10.757a10.519,10.519,0,0,1-.887,1.137c7.769-7.981,6.863-22.226,3.99-34.525-.79-1.137-1.638-2.333-2.564-3.586L523.417,5.7Z" transform="translate(-498.803 -5.7)" fill="#e3e3e3"/>
    </g>
  </g>
</svg>
